<?xml version="1.0" encoding="UTF-8" standalone="no"?>
<svg
   xmlns:dc="http://purl.org/dc/elements/1.1/"
   xmlns:cc="http://creativecommons.org/ns#"
   xmlns:rdf="http://www.w3.org/1999/02/22-rdf-syntax-ns#"
   xmlns:svg="http://www.w3.org/2000/svg"
   xmlns="http://www.w3.org/2000/svg"
   xmlns:sodipodi="http://sodipodi.sourceforge.net/DTD/sodipodi-0.dtd"
   xmlns:inkscape="http://www.inkscape.org/namespaces/inkscape"
   width="481.8897pt"
   height="340.1574pt"
   viewBox="0 0 481.8897 340.1574"
   version="1.1"
   id="svg2"
   inkscape:version="0.48.3.1 r9886"
   sodipodi:docname="Haskell-Logo.svg">
  <metadata
     id="metadata22">
    <rdf:RDF>
      <cc:Work
         rdf:about="">
        <dc:format>image/svg+xml</dc:format>
        <dc:type
           rdf:resource="http://purl.org/dc/dcmitype/StillImage" />
      </cc:Work>
    </rdf:RDF>
  </metadata>
  <sodipodi:namedview
     pagecolor="#ffffff"
     bordercolor="#666666"
     borderopacity="1"
     objecttolerance="10"
     gridtolerance="10"
     guidetolerance="10"
     inkscape:pageopacity="0"
     inkscape:pageshadow="2"
     inkscape:window-width="1366"
     inkscape:window-height="716"
     id="namedview20"
     showgrid="false"
     inkscape:zoom="0.45400192"
     inkscape:cx="301.18106"
     inkscape:cy="306.04823"
     inkscape:window-x="0"
     inkscape:window-y="27"
     inkscape:window-maximized="1"
     inkscape:current-layer="g10" />
  <defs
     id="defs4">
    <clipPath
       id="clip1">
      <path
         d="M 0 340.15625 L 481.890625 340.15625 L 481.890625 0 L 0 0 L 0 340.15625 Z M 0 340.15625 "
         id="path7" />
    </clipPath>
  </defs>
  <g
     id="surface0">
    <g
       clip-path="url(#clip1)"
       clip-rule="nonzero"
       id="g10">
      <path
         style="stroke:none;fill-rule:nonzero;fill:#6a6bd7;fill-opacity:1"
         d="M 0 340.15625 L 113.386719 170.078125 L 0 0 L 85.039062 0 L 198.425781 170.078125 L 85.039062 340.15625 L 0 340.15625 Z M 0 340.15625 "
         id="path12" />
      <path
         style="stroke:none;fill-rule:nonzero;fill:#6bc9dd;fill-opacity:1"
         d="M 113.386719 340.15625 L 226.773438 170.078125 L 113.386719 0 L 198.425781 0 L 425.195312 340.15625 L 340.15625 340.15625 L 269.292969 233.859375 L 198.425781 340.15625 L 113.386719 340.15625 Z M 113.386719 340.15625 "
         id="path14" />
      <path
         style="stroke:none;fill-rule:nonzero;fill:#6a6bd7;fill-opacity:1"
         d="M 387.402344 240.945312 L 349.609375 184.253906 L 481.890625 184.25 L 481.890625 240.945312 L 387.402344 240.945312 Z M 387.402344 240.945312 "
         id="path16" />
      <path
         style="stroke:none;fill-rule:nonzero;fill:#6a6bd7;fill-opacity:1"
         d="M 330.710938 155.90625 L 292.914062 99.214844 L 481.890625 99.210938 L 481.890625 155.90625 L 330.710938 155.90625 Z M 330.710938 155.90625 "
         id="path18" />
    </g>
  </g>
</svg>
